<?xml version="1.0" encoding="UTF-8" standalone="no"?>
<!-- Created with Inkscape (http://www.inkscape.org/) -->

<svg
   width="210mm"
   height="297mm"
   viewBox="0 0 210 297"
   version="1.1"
   id="svg1"
   inkscape:version="1.3.2 (091e20e, 2023-11-25, custom)"
   sodipodi:docname="DesenhosTeste_.svg"
   inkscape:export-filename="..\mnt\data\calibre.png"
   inkscape:export-xdpi="96"
   inkscape:export-ydpi="96"
   xml:space="preserve"
   xmlns:inkscape="http://www.inkscape.org/namespaces/inkscape"
   xmlns:sodipodi="http://sodipodi.sourceforge.net/DTD/sodipodi-0.dtd"
   xmlns="http://www.w3.org/2000/svg"
   xmlns:svg="http://www.w3.org/2000/svg"><sodipodi:namedview
     id="namedview1"
     pagecolor="#ffffff"
     bordercolor="#000000"
     borderopacity="0.25"
     inkscape:showpageshadow="2"
     inkscape:pageopacity="0.0"
     inkscape:pagecheckerboard="0"
     inkscape:deskcolor="#d1d1d1"
     inkscape:document-units="mm"
     inkscape:zoom="1.0216711"
     inkscape:cx="352.36388"
     inkscape:cy="555.9519"
     inkscape:window-width="1920"
     inkscape:window-height="991"
     inkscape:window-x="-9"
     inkscape:window-y="-9"
     inkscape:window-maximized="1"
     inkscape:current-layer="layer1" /><defs
     id="defs1" /><g
     inkscape:label="Layer 1"
     inkscape:groupmode="layer"
     id="layer1"><rect
       style="fill:#f9f9f9;stroke:none;stroke-width:0.2;stroke-linejoin:bevel;stroke-dasharray:none"
       id="rect10"
       width="79.375"
       height="52.916668"
       x="18.220253"
       y="91.13327"
       ry="0.14283942"
       inkscape:export-filename="..\mnt\data\p1.png"
       inkscape:export-xdpi="960"
       inkscape:export-ydpi="960" /><rect
       style="fill:#f9f9f9;stroke:none;stroke-width:0.2;stroke-linejoin:bevel;stroke-dasharray:none"
       id="rect11"
       width="79.375"
       height="52.916668"
       x="20.031229"
       y="162.12352"
       ry="0.14283942"
       inkscape:export-filename="..\mnt\data\p2.png"
       inkscape:export-xdpi="960"
       inkscape:export-ydpi="960" /><rect
       style="fill:#f9f9f9;stroke:none;stroke-width:0.2;stroke-linejoin:bevel;stroke-dasharray:none"
       id="rect12"
       width="79.375"
       height="52.916668"
       x="21.480009"
       y="229.854"
       ry="0.14283942"
       inkscape:export-filename="..\mnt\data\p3.png"
       inkscape:export-xdpi="960"
       inkscape:export-ydpi="960" /><rect
       style="fill:#f9f9f9;stroke:none;stroke-width:0.2;stroke-linejoin:bevel;stroke-dasharray:none"
       id="rect7"
       width="79.375"
       height="52.916668"
       x="11.338546"
       y="20.143026"
       ry="0.14283942"
       inkscape:export-filename="..\mnt\data\calibre.png"
       inkscape:export-xdpi="960"
       inkscape:export-ydpi="960" /><path
       id="path1"
       style="fill:#000000;stroke:none;stroke-width:0.1;stroke-linejoin:bevel;stroke-dasharray:none"
       d="m 137.47672,44.633485 c -0.0289,0 -0.0521,0.0234 -0.0521,0.0523 v 3.93574 c 0,0.029 0.0232,0.0523 0.0521,0.0523 h 35.90665 v 0.0248 l 13.94267,-1.58338 a 2.0065109,2.0065109 0 0 0 1.95057,1.55734 2.0065109,2.0065109 0 0 0 2.00643,-2.00643 2.0065109,2.0065109 0 0 0 -2.00643,-2.00663 2.0065109,2.0065109 0 0 0 -1.95057,1.55754 l -13.74156,-1.56067 c -0.009,-0.013 -0.0226,-0.0229 -0.04,-0.0229 h -0.16109 z" /><path
       style="fill:none;stroke:#ff0000;stroke-width:0.2;stroke-linejoin:bevel;stroke-dasharray:none"
       d="m 137.3843,44.633485 v 29.85317"
       id="path2" /><path
       style="fill:none;stroke:#ff0000;stroke-width:0.200001;stroke-linejoin:bevel;stroke-dasharray:none"
       d="m 173.30272,44.633485 v 16.63446"
       id="path3" /><path
       style="fill:none;stroke:#ff0000;stroke-width:0.2;stroke-linejoin:bevel;stroke-dasharray:none"
       d="m 189.19595,44.633485 v 28.10544"
       id="path4" /><path
       id="path5"
       style="fill:#ff0000;stroke:none;stroke-width:0.2;stroke-linejoin:bevel;stroke-dasharray:none"
       inkscape:transform-center-x="-0.81200589"
       d="m 168.43058,52.279855 v 1.56446 c 0,-0.009 -0.007,-0.0161 -0.0161,-0.0161 h -28.80147 c -0.009,0 0,0.007 0,0.0161 v 2.47019 c 0,0.009 -0.009,0.016 0,0.016 h 28.80143 c 0.009,0 0.0161,-0.007 0.0161,-0.016 v 1.56446 l 4.87215,-2.79956 z"
       inkscape:transform-center-y="2.2228858e-06"
       sodipodi:nodetypes="ccsssssscccc" /><path
       id="path6"
       style="fill:#ff0000;stroke:none;stroke-width:0.2;stroke-linejoin:bevel;stroke-dasharray:none"
       inkscape:transform-center-x="-0.81200207"
       d="m 184.32382,59.482915 v 1.56445 c 0,-0.009 -0.007,-0.0161 -0.0161,-0.0161 h -44.69471 c -0.009,0 0,0.007 0,0.0161 v 2.4702 c 0,0.009 -0.009,0.0161 0,0.0161 h 44.69467 c 0.009,0 0.0161,-0.007 0.0161,-0.0161 v 1.56445 l 4.87214,-2.79955 z"
       inkscape:transform-center-y="3.5084677e-06"
       sodipodi:nodetypes="ccsssssscccc" /><circle
       style="fill:#000000;stroke:none;stroke-width:0.2;stroke-linejoin:bevel;stroke-dasharray:none"
       id="path7-3"
       cx="196.246"
       cy="21.034376"
       r="3.3072917" /><path
       sodipodi:type="star"
       style="fill:#000000;stroke:none;stroke-width:0.434761;stroke-linejoin:bevel;stroke-dasharray:none"
       id="path8-0"
       inkscape:flatsided="true"
       sodipodi:sides="3"
       sodipodi:cx="112.82378"
       sodipodi:cy="171.31828"
       sodipodi:r1="16.843046"
       sodipodi:r2="8.4215231"
       sodipodi:arg1="0"
       sodipodi:arg2="1.0471976"
       inkscape:rounded="0"
       inkscape:randomized="0"
       d="m 129.66682,171.31828 -25.26457,14.58651 v -29.17301 z"
       inkscape:transform-center-x="-4.2107602"
       inkscape:transform-center-y="-3.9951103e-06"
       transform="matrix(1,0,0,0.21162099,69.886472,-15.22017)" /><rect
       style="fill:#000000;stroke:none;stroke-width:0.199999;stroke-linejoin:bevel;stroke-dasharray:none"
       id="rect8-4"
       width="54.961643"
       height="6.1736441"
       x="119.32708"
       y="17.947554"
       ry="0.13613564" /><path
       id="path7-3-0"
       style="fill:#000000;stroke:none;stroke-width:0.2;stroke-linejoin:bevel;stroke-dasharray:none"
       d="M 89.608484 179.36528 A 3.3072917 3.3072917 0 0 0 86.405579 181.87727 L 67.651168 179.58594 L 67.651168 179.72185 C 67.651168 179.64643 67.590161 179.58594 67.514742 179.58594 L 26.338961 179.58594 C 26.263542 179.58594 26.203052 179.64643 26.203052 179.72185 L 26.203052 185.6233 C 26.203052 185.69871 26.263542 185.7592 26.338961 185.7592 L 67.514742 185.7592 C 67.590161 185.7592 67.651168 185.69871 67.651168 185.6233 L 67.651168 185.7592 L 86.405579 183.46787 A 3.3072917 3.3072917 0 0 0 89.608484 185.97986 A 3.3072917 3.3072917 0 0 0 92.915776 182.67257 A 3.3072917 3.3072917 0 0 0 89.608484 179.36528 z " /><path
       id="path7-0"
       style="fill:#000000;stroke:none;stroke-width:0.2;stroke-linejoin:bevel;stroke-dasharray:none"
       d="m 21.592954,114.50498 v 6.17326 h 41.311691 c 0.07541,0 0.136425,-0.0605 0.136425,-0.1359 v 0.1359 l 20.106783,-2.45669 a 2.778125,2.778125 0 0 0 2.698544,2.14819 2.778125,2.778125 0 0 0 2.778125,-2.77813 2.778125,2.778125 0 0 0 -2.778125,-2.77812 2.778125,2.778125 0 0 0 -2.698544,2.14819 l -20.106783,-2.4567 v 0.13591 c 0,-0.0754 -0.06102,-0.13591 -0.136425,-0.13591 z" /><path
       id="circle8"
       style="fill:#000000;stroke:none;stroke-width:0.2;stroke-linejoin:bevel;stroke-dasharray:none"
       d="m 27.007062,262.75074 v 6.17326 h 42.919861 c 0.07541,0 0.136426,-0.0605 0.136426,-0.13591 V 268.924 L 90.1753,266.46679 a 2.5135417,2.5135417 0 0 0 2.428792,1.88412 2.5135417,2.5135417 0 0 0 2.511475,-2.4877 l 0.21239,-0.0258 -0.21084,-0.0258 a 2.5135417,2.5135417 0 0 0 -2.513025,-2.4877 2.5135417,2.5135417 0 0 0 -2.428792,1.88412 l -20.111951,-2.45721 v 0.13591 c 0,-0.0754 -0.06102,-0.13591 -0.136426,-0.13591 z" /><circle
       style="fill:#ff0000;stroke:none;stroke-width:0.2;stroke-linejoin:bevel;stroke-dasharray:none"
       id="path10"
       cx="68.784035"
       cy="51.087311"
       r="5" /><rect
       style="fill:#f9f9f9;stroke:none;stroke-width:0.2;stroke-linejoin:bevel;stroke-dasharray:none"
       id="rect15"
       width="79.375"
       height="52.916668"
       x="108.94691"
       y="91.389381"
       ry="0.14283942"
       inkscape:export-filename="..\mnt\data\p1_.png"
       inkscape:export-xdpi="960"
       inkscape:export-ydpi="960" /><path
       id="path15"
       style="fill:#000000;stroke:none;stroke-width:0.2;stroke-linejoin:bevel;stroke-dasharray:none"
       d="m 114.98391,118.53988 0.69242,6.1343 41.051,-4.63374 c 0.0749,-0.008 0.12878,-0.0754 0.12032,-0.15034 l 0.0153,0.13504 19.70434,-4.69647 a 2.778125,2.778125 0 0 0 2.92247,1.83195 2.778125,2.778125 0 0 0 2.44898,-3.07221 2.778125,2.778125 0 0 0 -3.0722,-2.44898 2.778125,2.778125 0 0 0 -2.44057,2.43732 l -20.25545,-0.18591 0.0153,0.13505 c -0.008,-0.0749 -0.0759,-0.12821 -0.15082,-0.11975 z" /><rect
       style="fill:#f9f9f9;stroke:none;stroke-width:0.2;stroke-linejoin:bevel;stroke-dasharray:none"
       id="rect16"
       width="79.375"
       height="52.916668"
       x="106.59662"
       y="161.20877"
       ry="0.14283942"
       inkscape:export-filename="..\mnt\data\p2_.png"
       inkscape:export-xdpi="960"
       inkscape:export-ydpi="960" /><path
       id="path16"
       style="fill:#000000;stroke:none;stroke-width:0.2;stroke-linejoin:bevel;stroke-dasharray:none"
       d="m 176.29736,183.62913 a 3.3072917,3.3072917 0 0 0 -3.58474,1.9283 l -18.0879,-5.45948 -0.0232,0.13392 c 0.0129,-0.0743 -0.0369,-0.14433 -0.11122,-0.15721 l -40.57129,-7.0296 c -0.0743,-0.0129 -0.14425,0.0364 -0.15712,0.11071 l -1.00751,5.81481 c -0.0129,0.0743 0.0364,0.14423 0.11072,0.15711 l 40.57128,7.0296 c 0.0743,0.0129 0.14476,-0.0363 0.15763,-0.11061 l -0.0232,0.13391 18.87026,0.94409 a 3.3072917,3.3072917 0 0 0 2.72704,3.02192 3.3072917,3.3072917 0 0 0 3.82336,-2.69411 3.3072917,3.3072917 0 0 0 -2.69411,-3.82336 z" /><rect
       style="fill:#f9f9f9;stroke:none;stroke-width:0.2;stroke-linejoin:bevel;stroke-dasharray:none"
       id="rect17"
       width="79.375"
       height="52.916668"
       x="110.21781"
       y="228.04303"
       ry="0.14283942"
       inkscape:export-filename="..\mnt\data\p3_.png"
       inkscape:export-xdpi="960"
       inkscape:export-ydpi="960" /><path
       id="path17"
       style="fill:#000000;stroke:none;stroke-width:0.2;stroke-linejoin:bevel;stroke-dasharray:none"
       d="m 117.38213,262.9519 2.16985,5.77935 40.18121,-15.08591 c 0.0706,-0.0265 0.10645,-0.10459 0.0799,-0.17519 l 0.0478,0.12724 17.96495,-9.36957 a 2.5135417,2.5135417 0 0 0 2.93608,0.91019 2.5135417,2.5135417 0 0 0 1.47681,-3.21172 l 0.18977,-0.0988 -0.20646,0.0499 a 2.5135417,2.5135417 0 0 0 -3.22707,-1.44566 2.5135417,2.5135417 0 0 0 -1.61157,2.61759 l -19.69232,4.76874 0.0478,0.12724 c -0.0265,-0.0706 -0.10488,-0.1058 -0.17549,-0.0793 z" /></g></svg>
